/* XPM */
static char *_c90cc3ac89f43508916d0a53ee77f69[] = {
/* columns rows colors chars-per-pixel */
"64 64 5 1 ",
"  c black",
". c #347722",
"X c #409529",
"o c #55B939",
"O c #83C871",
/* pixels */
"                                                                ",
"                                                                ",
"                                                                ",
"                                                                ",
"                                                                ",
"                                                                ",
"                                                                ",
"                                                                ",
"                                                                ",
"                            OOOOOO                              ",
"                           X.XXoXOO                             ",
"                           X.XXoXXO                             ",
"                          .X.XXoXoXO                            ",
"                          .X.XXoXoXO        OO                  ",
"                         X.X.XXoXoXOO      XXOO                 ",
"                         X.X.XXoXoXoO      XoXO                 ",
"                         X.X.XXoXoXoO     XXoXOO                ",
"                         X.X.XXoXoXoO     oXoXXO                ",
"                         X.X.XXoXoXoO     XXoXXX                ",
"                         X.X.XXoXoXoO     oXoXoX                ",
"                         X.X.XXoXoXoO     oXoXoX                ",
"                         X.X.XXoXoXoO     oXoXoX                ",
"                         X.X.XXoXoXoO    oXXoXX.                ",
"             OOO         X.X.XXoXoXoO   oXXoXo.                 ",
"            .XXOO        X.X.XXoXoXoOOOoXXoXo.                  ",
"            ..X.O        X.X.XXoXoXooooXXoXo.                   ",
"            ..X.O        X.X.XXoXoXoXXXXoXo.                    ",
"           .X.X.OO       X.X.XXoXoXoooooXo.                     ",
"           .X.X.XO       X.X.XXoXoXo......                      ",
"           .X.X.XO       X.X.XXoXoXo.                           ",
"           .X.X.X.       X.X.XXoXoXo.                           ",
"           .X.X.X.       X.X.XXoXoXo.                           ",
"           .X.X.X.       X.X.XXoXoXoO                           ",
"           .X.X.X.       X.X.XXoXoXoO                           ",
"           .X.X.X.       X.X.XXoXoXoO                           ",
"           .X.X.X.       X.X.XXoXoXoO                           ",
"           .X.X.X.       X.X.XXoXoXoO                           ",
"           .X.X.X.       X.X.XXoXoXoO                           ",
"           .X.X.X.       ..X.XXoXoXoO                           ",
"           .X.X.X.       ..X.XXoXoXoO                           ",
"           .X.X.X.       ..X.XXoXoXoO                           ",
"           .X.X.X.       ..X.XXoXoXoO                           ",
"           .X.X.X.       ..X.XXoXoXoO                           ",
"           .X.X.X.       ..X.XXoXoXoO                           ",
"           .X.X.X.       ..X.XXoXoXoO                           ",
"           .X.XX...      ..X.XXoXoXoO                           ",
"           .XX.XX....    ..X.XXoXoXoO                           ",
"           ..XX.XX.X...  ..X.XXoXoXoO                           ",
"            ..XX..X.X......X.XXoXoXoO                           ",
"             ...XX.....X...X.XXoXoXoO                           ",
"               ...XXX......X.XXoXoXoO                           ",
"                 ...XXXXXX.X.XXoXoXoO                           ",
"                   ........X.XXoXoXoO                           ",
"                         ..X.XXoXoXoO                           ",
"                         ..X.XXoXoXoO                           ",
"                         ..X.XXoXoXoO                           ",
"                         ..X.XXoXoXoO                           ",
"                         ..X.XXoXoXoO                           ",
"                         ..X.XXoXoXoO                           ",
"                         ..X.XXoXoXoO                           ",
"                         ..X.XXoXoXoO                           ",
"                         ..X.XXoXoXoO                           ",
"                         ..X.XXoXoXoO                           ",
"                         ..X.XXoXoXoO                           "
};
